<?xml version="1.0" standalone="no"?>
<!DOCTYPE svg PUBLIC "-//W3C//DTD SVG 20010904//EN"
 "http://www.w3.org/TR/2001/REC-SVG-20010904/DTD/svg10.dtd">
<svg version="1.0" xmlns="http://www.w3.org/2000/svg"
 width="700.000000pt" height="700.000000pt" viewBox="0 0 700.000000 700.000000"
 preserveAspectRatio="xMidYMid meet">
<metadata>
Created by potrace 1.14, written by Peter Selinger 2001-2017
</metadata>
<g transform="translate(0.000000,700.000000) scale(0.100000,-0.100000)"
fill="#000000" stroke="none">
<path d="M3208 6985 c-60 -33 -71 -107 -43 -285 25 -165 83 -335 154 -450 17
-28 31 -55 31 -60 0 -17 -111 -118 -186 -170 -156 -108 -323 -165 -524 -180
-69 -5 -567 -10 -1107 -10 -740 0 -989 -3 -1008 -12 -58 -26 -55 40 -55 -1302
l0 -1235 -94 -139 c-197 -289 -300 -541 -351 -852 -163 -1005 505 -1980 1526
-2230 232 -57 176 -55 1974 -55 l1660 0 120 22 c245 45 480 128 675 239 538
308 897 816 996 1409 25 147 25 465 0 610 -35 211 -113 445 -204 619 -20 39
-83 140 -139 225 l-103 154 0 1234 c0 1348 3 1277 -57 1301 -20 8 -347 12
-1103 15 -1191 4 -1123 1 -1312 71 -122 46 -237 118 -330 206 l-79 75 54 105
c95 182 153 413 145 577 -3 64 -7 76 -31 100 -23 24 -36 28 -82 28 -46 0 -59
-4 -82 -27 -24 -25 -28 -38 -40 -153 -7 -69 -20 -153 -29 -188 -21 -82 -73
-217 -84 -217 -11 0 -63 135 -84 217 -15 55 -35 217 -36 280 0 13 -13 37 -28
54 -34 38 -100 49 -144 24z m442 -1117 l45 -37 -187 -1 c-119 0 -188 4 -188
10 0 6 3 10 8 10 4 0 45 33 92 74 l85 73 50 -46 c28 -25 70 -63 95 -83z m2650
-1220 l-1 -953 -30 65 c-201 432 -299 849 -315 1339 -4 108 -11 204 -16 214
-5 10 -24 27 -41 37 -31 20 -73 20 -2395 20 -2590 0 -2404 4 -2435 -58 -10
-18 -16 -87 -21 -219 -7 -221 -25 -382 -62 -568 -49 -245 -145 -540 -242 -745
l-40 -85 -1 953 -1 952 2800 0 2800 0 0 -952z m-586 445 c3 -21 6 -66 6 -101
0 -158 57 -523 111 -722 121 -439 291 -801 572 -1220 199 -296 275 -467 329
-732 20 -99 23 -142 23 -343 -1 -199 -4 -244 -23 -331 -32 -150 -76 -273 -148
-419 -169 -344 -464 -633 -819 -805 -219 -106 -432 -162 -683 -180 -179 -13
-2969 -13 -3158 0 -557 38 -1049 309 -1369 755 -80 111 -195 336 -234 459
-141 442 -108 881 98 1301 33 66 115 203 183 305 250 374 397 672 516 1040 93
289 162 658 162 871 0 36 3 87 6 113 l7 46 2207 0 2207 0 7 -37z"/>
<path d="M3434 4531 c-44 -27 -54 -66 -54 -212 l0 -127 -42 -7 c-73 -12 -197
-62 -274 -111 -174 -108 -301 -282 -356 -486 -30 -114 -30 -297 1 -413 60
-223 209 -410 410 -514 111 -57 197 -80 346 -92 71 -6 157 -17 190 -25 180
-46 341 -198 396 -373 27 -84 35 -221 20 -303 -20 -104 -83 -220 -159 -297
-228 -226 -596 -226 -824 0 -100 101 -168 255 -168 385 0 61 -22 109 -59 128
-69 36 -151 6 -172 -63 -9 -31 -9 -61 0 -133 36 -282 197 -511 446 -636 68
-34 185 -72 221 -72 l24 0 0 -130 c0 -185 24 -230 120 -230 96 0 120 45 120
230 l0 130 24 0 c36 0 153 38 221 72 219 110 373 303 432 544 23 95 22 286 -1
379 -26 101 -105 259 -170 337 -55 65 -140 136 -221 183 -101 60 -270 105
-393 105 -232 1 -436 124 -530 321 -23 46 -46 112 -53 147 -16 85 -6 230 21
309 61 177 217 321 397 368 75 20 229 19 307 -1 230 -59 403 -265 422 -504 11
-130 40 -170 124 -170 115 0 144 97 93 310 -18 76 -77 209 -123 275 -110 159
-325 299 -507 330 l-43 7 0 129 c0 89 -4 140 -14 164 -26 61 -110 84 -172 46z"/>
</g>
</svg>
